<svg width="99" height="33" viewBox="0 0 99 33" fill="none" xmlns="http://www.w3.org/2000/svg">
<path d="M13.6059 13.9556H17.6548V32.1575H13.6059V28.3213L15.0315 27.9414V27.5614L6.05517 27.5979C2.69929 27.5979 0 25.3364 0 22.5276V13.9556H4.01246V22.5276C4.01246 23.3666 4.92438 24.0597 6.05517 24.0597H13.6059V13.9556Z" fill="#F5F7DC"/>
<path d="M40.8293 23.0383C40.8293 23.549 40.7929 24.0597 40.6834 24.5703H23.3569C24.1229 27.1967 26.7857 29.13 29.9592 29.13C32.0019 29.13 33.7893 28.3275 35.066 27.0872H39.808C38.0936 30.3702 34.3364 32.6317 29.9592 32.6317C23.977 32.6317 19.1256 28.3639 19.1256 23.0383C19.1256 17.7492 23.977 13.4449 29.9592 13.4449C35.3943 13.4449 39.8809 16.9467 40.6834 21.5428C40.7929 22.017 40.8293 22.5276 40.8293 23.0383ZM24.7065 21.5428H36.5615C35.832 18.9164 33.1327 16.9831 29.9592 16.9831C27.0046 16.9831 24.4512 18.6976 23.5393 21.0321C23.4298 21.3239 23.2839 21.6157 23.1016 21.8711L22.4085 22.8924L22.8827 23.1842L23.5758 22.1264C23.8311 21.7616 24.2323 21.5428 24.7065 21.5428Z" fill="#F5F7DC"/>
<path d="M40.7361 13.9556H59.923V16.9831L50.7485 16.9223L50.6707 17.0695L52.3358 17.4922V32.1575H48.2869V16.9831H40.7361V13.9556Z" fill="#F5F7DC"/>
<path d="M68.841 21.2509L78.8357 32.1575H74.0207L66.1417 23.549L64.9015 24.5703V32.1575H60.8891V13.9556H64.9015V18.2598C64.9015 18.807 64.7921 19.3541 64.5732 19.9013L63.6613 21.944L64.1355 22.1629L64.9015 20.4849C65.1204 19.9378 65.5216 19.4271 65.9593 19.0259L71.978 13.9556H77.486L68.841 21.2509Z" fill="#F5F7DC"/>
<path d="M88.1299 13.4449C94.1486 13.4449 99 17.7492 99 23.0383C99 28.3639 94.1486 32.6317 88.1299 32.6317C82.1477 32.6317 77.2962 28.3639 77.2962 23.0383C77.2962 17.7492 82.1477 13.4449 88.1299 13.4449ZM88.1299 29.13C91.9235 29.13 94.9511 26.3942 94.9511 23.0383C94.9511 19.6824 91.9235 16.9831 88.1299 16.9831C84.3728 16.9831 81.3087 19.6824 81.3087 23.0383C81.3087 26.3942 84.3728 29.13 88.1299 29.13Z" fill="#F5F7DC"/>
<path d="M38.2749 9.17228L38.0501 7.94085C38.0197 7.77797 37.9258 7.63598 37.7887 7.54576C37.6517 7.45555 37.4827 7.4244 37.3185 7.4591L28.3757 9.40482L28.4071 6.08789C28.4077 5.92125 28.3426 5.76341 28.2259 5.64863C28.1092 5.53385 27.9503 5.4714 27.7837 5.47482L26.5239 5.50889C26.4412 5.51099 26.3592 5.52938 26.2824 5.56301C26.2057 5.59664 26.1358 5.64484 26.0768 5.70486C26.0178 5.76489 25.9707 5.83556 25.9384 5.91282C25.906 5.99009 25.889 6.07245 25.8883 6.15518L25.8388 11.2554C25.837 11.5412 25.9479 11.8725 26.148 12.0692C26.348 12.266 26.6782 12.3337 27.0001 12.2658L37.7688 9.92193C37.9328 9.88599 38.0782 9.78689 38.1731 9.64636C38.268 9.50583 38.3046 9.33534 38.2749 9.17228Z" fill="#E65F5C"/>
</svg>
