<svg width="33" height="13" viewBox="0 0 33 13" fill="none" xmlns="http://www.w3.org/2000/svg">
<path d="M4.50258 5.52449H5.84249V12.3319H4.50258V10.8972L4.97437 10.7551V10.613L2.00383 10.6267C0.893273 10.6267 0 9.78085 0 8.7304V5.52449H1.32784V8.7304C1.32784 9.04417 1.62962 9.30337 2.00383 9.30337H4.50258V5.52449Z" fill="#0F0326"/>
<path d="M13.5116 8.92139C13.5116 9.11238 13.4995 9.30337 13.4633 9.49436H7.72947C7.98296 10.4766 8.86417 11.1996 9.91437 11.1996C10.5904 11.1996 11.1818 10.8995 11.6043 10.4357H13.1736C12.6063 11.6635 11.3629 12.5093 9.91437 12.5093C7.93468 12.5093 6.3292 10.9131 6.3292 8.92139C6.3292 6.94327 7.93468 5.3335 9.91437 5.3335C11.713 5.3335 13.1977 6.64315 13.4633 8.36206C13.4995 8.53941 13.5116 8.7304 13.5116 8.92139ZM8.1761 8.36206H12.0993C11.8578 7.37982 10.9646 6.65679 9.91437 6.65679C8.93659 6.65679 8.09161 7.29797 7.78982 8.17107C7.75361 8.28021 7.70533 8.38934 7.64497 8.48484L7.41562 8.86682L7.57254 8.97596L7.8019 8.58033C7.88639 8.44391 8.01918 8.36206 8.1761 8.36206Z" fill="#0F0326"/>
<path d="M13.4808 5.52449H19.8302V6.65679L16.7941 6.63403L16.7684 6.68909L17.3194 6.84719V12.3319H15.9795V6.65679H13.4808V5.52449Z" fill="#0F0326"/>
<path d="M22.7815 8.25292L26.089 12.3319H24.4956L21.8882 9.11238L21.4778 9.49436V12.3319H20.1499V5.52449H21.4778V7.13426C21.4778 7.3389 21.4416 7.54353 21.3691 7.74816L21.0674 8.51212L21.2243 8.59398L21.4778 7.96644C21.5502 7.7618 21.683 7.57081 21.8278 7.42075L23.8196 5.52449H25.6424L22.7815 8.25292Z" fill="#0F0326"/>
<path d="M29.1647 5.3335C31.1565 5.3335 32.7619 6.94327 32.7619 8.92139C32.7619 10.9131 31.1565 12.5093 29.1647 12.5093C27.185 12.5093 25.5795 10.9131 25.5795 8.92139C25.5795 6.94327 27.185 5.3335 29.1647 5.3335ZM29.1647 11.1996C30.4201 11.1996 31.422 10.1765 31.422 8.92139C31.422 7.66631 30.4201 6.65679 29.1647 6.65679C27.9214 6.65679 26.9074 7.66631 26.9074 8.92139C26.9074 10.1765 27.9214 11.1996 29.1647 11.1996Z" fill="#0F0326"/>
<path d="M12.7788 3.36393L12.7051 2.87049C12.6951 2.80522 12.6642 2.74833 12.6193 2.71218C12.5743 2.67603 12.5189 2.66355 12.465 2.67745L9.53087 3.45712L9.54116 2.12799C9.54138 2.06122 9.52002 1.99797 9.48173 1.95198C9.44344 1.90598 9.39131 1.88096 9.33664 1.88233L8.9233 1.89598C8.89616 1.89682 8.86924 1.90419 8.84407 1.91767C8.81889 1.93114 8.79597 1.95046 8.7766 1.97451C8.75723 1.99856 8.74179 2.02688 8.73118 2.05784C8.72057 2.0888 8.71498 2.12181 8.71474 2.15496L8.69852 4.19867C8.69791 4.31318 8.73431 4.44592 8.79995 4.52476C8.86559 4.60361 8.9739 4.63075 9.07955 4.60354L12.6127 3.66433C12.6666 3.64993 12.7143 3.61022 12.7454 3.5539C12.7765 3.49759 12.7885 3.42927 12.7788 3.36393Z" fill="#E65F5C"/>
</svg>
