<svg width="28" height="35" viewBox="0 0 28 35" fill="none" xmlns="http://www.w3.org/2000/svg">
<path d="M26.8829 13.6645L13.7102 0L0.537452 13.6645C0.382034 13.7879 0.253858 13.9447 0.161603 14.1242C0.0693481 14.3038 0.0151677 14.5019 0.00272905 14.7052C-0.00970956 14.9085 0.0198848 15.1122 0.0895078 15.3025C0.159131 15.4928 0.267157 15.6653 0.406274 15.8083C0.54539 15.9513 0.71235 16.0615 0.895848 16.1313C1.07935 16.2012 1.2751 16.2292 1.46986 16.2133C1.66461 16.1974 1.85383 16.1381 2.02468 16.0393C2.19554 15.9406 2.34406 15.8047 2.46018 15.6409L12.3465 5.41744L12.3465 32.6184C12.3465 32.9955 12.4902 33.3572 12.7459 33.6238C13.0017 33.8905 13.3485 34.0403 13.7102 34.0403C14.0718 34.0403 14.4187 33.8905 14.6744 33.6238C14.9301 33.3572 15.0738 32.9955 15.0738 32.6184L15.0738 5.41744L24.9602 15.6409C25.217 15.9068 25.5645 16.0554 25.9264 16.0541C26.2882 16.0527 26.6348 15.9015 26.8897 15.6338C27.1447 15.3661 27.2872 15.0037 27.2859 14.6263C27.2847 14.249 27.1397 13.8877 26.8829 13.6218V13.6645Z" fill="#B5D99C"/>
</svg>
