<svg width="31" height="30" viewBox="0 0 31 30" fill="none" xmlns="http://www.w3.org/2000/svg">
<path fill-rule="evenodd" clip-rule="evenodd" d="M7.90507 21.1844C8.3576 21.7135 9.00177 22.0411 9.69589 22.0953C10.39 22.1494 11.0772 21.9256 11.6063 21.4731C12.1354 21.0206 12.4631 20.3764 12.5173 19.6823C12.5714 18.9882 12.3476 18.301 11.8951 17.7719C11.671 17.5099 11.3975 17.2946 11.0903 17.1383C10.783 16.982 10.4479 16.8877 10.1042 16.8609C9.76056 16.8341 9.41495 16.8753 9.08715 16.982C8.75936 17.0888 8.45581 17.259 8.19382 17.4831C7.66471 17.9356 7.33704 18.5798 7.28289 19.2739C7.22874 19.968 7.45254 20.6552 7.90507 21.1844ZM12.7438 22.8031C11.862 23.5573 10.7166 23.9303 9.55978 23.8401C8.40291 23.7498 7.32928 23.2037 6.57507 22.3219C5.82086 21.44 5.44785 20.2947 5.53811 19.1378C5.62836 17.9809 6.17448 16.9073 7.05632 16.1531C7.93817 15.3989 9.0835 15.0259 10.2404 15.1161C11.3972 15.2064 12.4709 15.7525 13.2251 16.6344C13.9793 17.5162 14.3523 18.6615 14.262 19.8184C14.1718 20.9753 13.6257 22.0489 12.7438 22.8031Z" fill="#F5F7DC"/>
<path fill-rule="evenodd" clip-rule="evenodd" d="M16.0723 26.7056C15.1273 27.5369 14.0264 28.1719 12.8336 28.5735C11.6408 28.9751 10.38 29.1354 9.12463 29.0449C7.86929 28.9545 6.64449 28.6151 5.52158 28.0467C4.39867 27.4782 3.4001 26.692 2.58403 25.7339C1.76796 24.7757 1.15071 23.6647 0.768239 22.4656C0.385763 21.2666 0.245707 20.0034 0.356229 18.7496C0.466751 17.4959 0.825641 16.2767 1.41199 15.163C1.99835 14.0494 2.80044 13.0635 3.77155 12.2629L16.1616 2.04987C17.4198 1.01212 19.2871 2.10762 18.9966 3.71237L18.1041 8.61237L27.9338 0.422366C29.4563 -0.846384 31.5808 0.989366 30.5483 2.67812L24.6158 12.3854L27.9583 12.0144C29.6558 11.8254 30.5903 13.9394 29.3058 15.0681L16.0723 26.7056ZM3.9273 24.6126C4.59355 25.3918 5.40804 26.0307 6.32341 26.4923C7.23878 26.9539 8.23677 27.2289 9.25937 27.3013C10.282 27.3738 11.3088 27.2423 12.2801 26.9144C13.2514 26.5865 14.1478 26.0688 14.9173 25.3914L28.1508 13.7539L24.8083 14.1249C24.483 14.161 24.1541 14.1053 23.8589 13.9639C23.5638 13.8225 23.3141 13.6012 23.1384 13.3251C22.9627 13.0489 22.868 12.7291 22.865 12.4018C22.8619 12.0745 22.9507 11.7529 23.1213 11.4736L29.0538 1.76462L19.2258 9.95637C17.9693 11.0029 16.0898 9.90737 16.3838 8.29912L17.2746 3.39912L4.88455 13.6139C4.09144 14.2677 3.4366 15.0731 2.9583 15.9829C2.48 16.8927 2.18784 17.8887 2.09888 18.9127C2.00992 19.9368 2.12595 20.9682 2.44019 21.9469C2.75443 22.9256 3.25883 23.8318 3.9273 24.6126Z" fill="#F5F7DC"/>
</svg>
