<svg width="50" height="51" viewBox="0 0 50 51" fill="none" xmlns="http://www.w3.org/2000/svg">
<path d="M45.8333 25.5C45.8333 37.0059 36.5059 46.3333 25 46.3333M45.8333 25.5C45.8333 13.994 36.5059 4.66663 25 4.66663M45.8333 25.5H4.16666M25 46.3333C13.4941 46.3333 4.16666 37.0059 4.16666 25.5M25 46.3333C19.6505 40.7163 16.6667 33.2568 16.6667 25.5C16.6667 17.7432 19.6505 10.2836 25 4.66663M25 46.3333C30.3495 40.7163 33.3333 33.2568 33.3333 25.5C33.3333 17.7432 30.3495 10.2836 25 4.66663M4.16666 25.5C4.16666 13.994 13.4941 4.66663 25 4.66663" stroke="#E65F5C" stroke-width="2" stroke-linecap="round" stroke-linejoin="round"/>
</svg>
