<svg width="50" height="51" viewBox="0 0 50 51" fill="none" xmlns="http://www.w3.org/2000/svg">
<path d="M37.5 17.1667V13C37.5 11.895 37.061 10.8352 36.2796 10.0538C35.4982 9.27236 34.4384 8.83337 33.3333 8.83337H8.33334C7.22827 8.83337 6.16846 9.27236 5.38706 10.0538C4.60566 10.8352 4.16667 11.895 4.16667 13V27.5834C4.16667 28.6884 4.60566 29.7482 5.38706 30.5297C6.16846 31.3111 7.22827 31.75 8.33334 31.75H25M20.8333 40.0834V31.8334V38.3959M14.5833 40.0834H25M37.5 25.5H41.6667C43.9679 25.5 45.8333 27.3655 45.8333 29.6667V42.1667C45.8333 44.4679 43.9679 46.3334 41.6667 46.3334H37.5C35.1988 46.3334 33.3333 44.4679 33.3333 42.1667V29.6667C33.3333 27.3655 35.1988 25.5 37.5 25.5Z" stroke="#E65F5C" stroke-width="2" stroke-linecap="round" stroke-linejoin="round"/>
</svg>
