<svg width="51" height="50" viewBox="0 0 51 50" fill="none" xmlns="http://www.w3.org/2000/svg">
<path d="M38.0001 27.0833L35.1355 12.7625C35.0576 12.3728 34.8699 12.0136 34.5945 11.7272C34.3192 11.4407 33.9676 11.239 33.5814 11.1458L7.23971 4.22497C6.89268 4.14107 6.52992 4.14776 6.18622 4.24439C5.84252 4.34103 5.52943 4.52437 5.27697 4.77682C5.02452 5.02927 4.84118 5.34237 4.74454 5.68607C4.64791 6.02977 4.64122 6.39253 4.72512 6.73955L11.646 33.0812C11.7392 33.4675 11.9409 33.819 12.2273 34.0944C12.5138 34.3698 12.873 34.5575 13.2626 34.6354L27.5835 37.5M5.29179 4.79164L20.471 19.9708M33.223 44.3604C32.8324 44.7509 32.3025 44.9704 31.7501 44.9704C31.1977 44.9704 30.6679 44.7509 30.2772 44.3604L26.973 41.0562C26.5825 40.6655 26.3631 40.1357 26.3631 39.5833C26.3631 39.0309 26.5825 38.5011 26.973 38.1104L38.6105 26.4729C39.0012 26.0823 39.531 25.8629 40.0835 25.8629C40.6359 25.8629 41.1657 26.0823 41.5564 26.4729L44.8605 29.7771C45.2511 30.1677 45.4705 30.6975 45.4705 31.25C45.4705 31.8024 45.2511 32.3322 44.8605 32.7229L33.223 44.3604ZM27.5835 22.9166C27.5835 25.2178 25.718 27.0833 23.4168 27.0833C21.1156 27.0833 19.2501 25.2178 19.2501 22.9166C19.2501 20.6155 21.1156 18.75 23.4168 18.75C25.718 18.75 27.5835 20.6155 27.5835 22.9166Z" stroke="#E65F5C" stroke-width="2" stroke-linecap="round" stroke-linejoin="round"/>
</svg>
