<svg width="108" height="113" viewBox="0 0 108 113" fill="none" xmlns="http://www.w3.org/2000/svg">
<g filter="url(#filter0_d_1_212)">
<path d="M61.9082 64.8821L54.221 55.5326L55.6877 54.0006L63.3749 63.3501L61.9082 64.8821Z" fill="#F5F7DC"/>
<path d="M67.8963 52.6271C67.8886 52.7695 67.8569 52.9091 67.803 53.0382C67.7274 53.2178 67.611 53.3717 67.4656 53.4843C67.3202 53.5968 67.151 53.664 66.9752 53.6791L59.9258 54.3028L59.7734 52.0331L65.0804 51.5668L62.6814 47.7355L55.1766 47.1972C55.0452 47.1886 54.9166 47.1509 54.7982 47.0862C54.6798 47.0215 54.5738 46.9311 54.4865 46.8202L50.6832 41.9508C49.9052 40.9479 48.9584 40.1288 47.8977 39.5409C46.837 38.9531 45.6834 38.6081 44.5037 38.526L42.6474 38.3929L42.5293 40.485C42.452 41.8144 42.6093 43.1479 42.9922 44.4083C43.3751 45.6686 43.976 46.8309 44.76 47.8279L48.5633 52.6972C48.6499 52.809 48.716 52.9389 48.758 53.0795C48.7999 53.2201 48.8168 53.3686 48.8077 53.5166L48.33 61.9753L51.4177 65.1444L52.5009 59.2703L54.4791 59.7284L53.0365 67.5306C53.001 67.7253 52.9204 67.9059 52.8029 68.0542C52.6854 68.2024 52.5352 68.3131 52.3676 68.3748C52.1987 68.4373 52.0182 68.4481 51.8444 68.4058C51.6707 68.3636 51.5101 68.2699 51.3791 68.1345L46.6433 63.2773C46.5297 63.1651 46.4401 63.0254 46.3813 62.8686C46.3224 62.7118 46.2959 62.542 46.3036 62.372L46.7856 53.8346L43.2527 49.3235C42.2946 48.1037 41.5609 46.6817 41.0941 45.14C40.6273 43.5982 40.4367 41.9673 40.5333 40.3419L40.6515 38.2497C40.6852 37.6531 40.9277 37.096 41.3259 36.7009C41.724 36.3059 42.2451 36.1053 42.7744 36.1432L44.6307 36.2764C46.0735 36.3744 47.4846 36.7942 48.7823 37.5115C50.08 38.2289 51.2385 39.2294 52.1905 40.4552L55.7128 44.9769L63.2875 45.5202C63.4373 45.5318 63.583 45.5812 63.7135 45.6649C63.8441 45.7485 63.9563 45.8643 64.0418 46.0035L67.7161 51.9139C67.8458 52.1219 67.9093 52.3732 67.8963 52.6271Z" fill="#F5F7DC"/>
</g>
<defs>
<filter id="filter0_d_1_212" x="0.508881" y="0.138687" width="107.389" height="112.292" filterUnits="userSpaceOnUse" color-interpolation-filters="sRGB">
<feFlood flood-opacity="0" result="BackgroundImageFix"/>
<feColorMatrix in="SourceAlpha" type="matrix" values="0 0 0 0 0 0 0 0 0 0 0 0 0 0 0 0 0 0 127 0" result="hardAlpha"/>
<feOffset dy="4"/>
<feGaussianBlur stdDeviation="20"/>
<feComposite in2="hardAlpha" operator="out"/>
<feColorMatrix type="matrix" values="0 0 0 0 0.960784 0 0 0 0 0.968627 0 0 0 0 0.862745 0 0 0 1 0"/>
<feBlend mode="normal" in2="BackgroundImageFix" result="effect1_dropShadow_1_212"/>
<feBlend mode="normal" in="SourceGraphic" in2="effect1_dropShadow_1_212" result="shape"/>
</filter>
</defs>
</svg>
