<svg width="32" height="29" viewBox="0 0 32 29" fill="none" xmlns="http://www.w3.org/2000/svg">
<path d="M6.70838 21.0098C6.37289 24.4712 6.20449 26.2017 7.30953 26.9925C8.41369 27.7816 10.0606 27.1091 13.3535 25.7625L14.205 25.4138C15.1402 25.0317 15.6088 24.8396 16.1055 24.8484C16.6034 24.8577 17.0748 25.0658 18.0163 25.4816L18.874 25.861C22.1903 27.3248 23.8477 28.0571 24.9398 27.3058C26.0332 26.5549 25.8366 24.8171 25.4452 21.3448L25.3449 20.4447C25.2326 19.4579 25.1778 18.9649 25.328 18.5106C25.4781 18.0564 25.816 17.6932 26.4948 16.9665L27.111 16.3062C29.4954 13.7501 30.6878 12.4714 30.2596 11.2189C29.8296 9.963 28.0624 9.56316 24.527 8.76176M20.0357 5.55029C18.1957 2.5067 17.2741 0.985125 15.9159 0.960125C14.5573 0.936434 13.6597 2.42586 11.8672 5.40557L11.4034 6.17583C10.8941 7.02249 10.6396 7.44517 10.2392 7.72084C9.83916 7.9952 9.33842 8.09105 8.33695 8.28273L7.42526 8.45764C3.90269 9.13295 2.14162 9.46996 1.73177 10.7097C1.32192 11.9494 2.53508 13.2697 4.96098 15.9115" stroke="#F5F7DC" stroke-width="1.5" stroke-linecap="round"/>
</svg>
