<svg width="35" height="35" viewBox="0 0 35 35" fill="none" xmlns="http://www.w3.org/2000/svg">
<path fill-rule="evenodd" clip-rule="evenodd" d="M26.9544 28.8604V28.8575L26.9806 28.7948L31.3541 6.74479V6.67479C31.3541 6.125 31.15 5.64521 30.7096 5.35792C30.3231 5.10563 29.8783 5.08813 29.5662 5.11146C29.2757 5.13773 28.9891 5.19643 28.7116 5.28646C28.5933 5.3246 28.4766 5.36741 28.3616 5.41479L28.3427 5.42208L3.95935 14.9873L3.95206 14.9902C3.87793 15.0155 3.80537 15.0452 3.73477 15.0792C3.56136 15.1571 3.39498 15.2498 3.23748 15.3562C2.92394 15.5721 2.32748 16.0796 2.4281 16.8846C2.51123 17.5525 2.9706 17.9754 3.28123 18.1956C3.46458 18.3241 3.6617 18.4317 3.86894 18.5165L3.9156 18.5369L3.93019 18.5412L3.94039 18.5456L8.20748 19.9821C8.19289 20.249 8.21914 20.5217 8.2906 20.7915L10.4271 28.8983C10.5438 29.3402 10.796 29.7345 11.1482 30.0257C11.5005 30.3169 11.9351 30.4905 12.3911 30.522C12.8471 30.5536 13.3015 30.4415 13.6905 30.2015C14.0795 29.9616 14.3835 29.6058 14.56 29.1842L17.8966 25.6171L23.6264 30.0096L23.7081 30.0446C24.2287 30.2721 24.7144 30.3435 25.1591 30.2837C25.6039 30.2225 25.9569 30.0358 26.2223 29.8244C26.5293 29.5755 26.7739 29.2584 26.9369 28.8983L26.9485 28.8735L26.9529 28.8648L26.9544 28.8604ZM10.4052 20.2344C10.3815 20.1444 10.3872 20.0493 10.4212 19.9627C10.4553 19.8762 10.5161 19.8028 10.5948 19.7531L25.0629 10.5656C25.0629 10.5656 25.9146 10.0479 25.8839 10.5656C25.8839 10.5656 26.0356 10.656 25.5791 11.0804C25.1475 11.4844 15.2673 21.0233 14.2669 21.9887C14.2112 22.0428 14.1723 22.1116 14.1546 22.1871L12.5416 28.3412L10.4052 20.2344Z" fill="#B5D99C"/>
</svg>
