<svg width="50" height="50" viewBox="0 0 50 50" fill="none" xmlns="http://www.w3.org/2000/svg">
<path d="M30.625 13.1153C30.2433 13.5048 30.0295 14.0284 30.0295 14.5737C30.0295 15.119 30.2433 15.6426 30.625 16.032L33.9583 19.3653C34.3478 19.7471 34.8714 19.9609 35.4167 19.9609C35.962 19.9609 36.4856 19.7471 36.875 19.3653L44.7292 11.5112C45.7767 13.8261 46.0939 16.4054 45.6385 18.9052C45.183 21.405 43.9765 23.7067 42.1798 25.5034C40.383 27.3002 38.0814 28.5067 35.5816 28.9621C33.0817 29.4176 30.5025 29.1004 28.1875 28.0528L13.7917 42.4487C12.9629 43.2775 11.8388 43.7431 10.6667 43.7431C9.49457 43.7431 8.37047 43.2775 7.54167 42.4487C6.71287 41.6199 6.24725 40.4958 6.24725 39.3237C6.24725 38.1516 6.71287 37.0275 7.54167 36.1987L21.9375 21.8028C20.8899 19.4879 20.5727 16.9086 21.0282 14.4088C21.4837 11.909 22.6902 9.60733 24.4869 7.81059C26.2837 6.01385 28.5853 4.80735 31.0851 4.35188C33.5849 3.89641 36.1642 4.21359 38.4792 5.26117L30.625 13.1153Z" stroke="#E65F5C" stroke-width="2" stroke-linecap="round" stroke-linejoin="round"/>
</svg>
